<svg xmlns="http://www.w3.org/2000/svg" viewBox="5867 3158 50 49.999"><defs><style>.a{fill:#292759;}</style></defs><g transform="translate(5917 3207.999) rotate(180)"><ellipse class="a" cx="3.052" cy="3.043" rx="3.052" ry="3.043" transform="translate(21.948 22.174)"/><ellipse class="a" cx="5.523" cy="5.507" rx="5.523" ry="5.507" transform="translate(7.413 31.594)"/><ellipse class="a" cx="5.523" cy="5.507" rx="5.523" ry="5.507" transform="translate(31.395 31.594)"/><ellipse class="a" cx="5.523" cy="5.507" rx="5.523" ry="5.507" transform="translate(7.413 7.681)"/><ellipse class="a" cx="5.523" cy="5.507" rx="5.523" ry="5.507" transform="translate(31.395 7.681)"/><path class="a" d="M3.2,14.637H1.453A1.454,1.454,0,0,1,0,13.188V1.449A1.454,1.454,0,0,1,1.453,0H3.2A1.454,1.454,0,0,1,4.651,1.449V13.188A1.367,1.367,0,0,1,3.2,14.637Z" transform="translate(22.529 4.348)"/><path class="a" d="M3.2,14.637H1.453A1.454,1.454,0,0,1,0,13.188V1.449A1.454,1.454,0,0,1,1.453,0H3.2A1.454,1.454,0,0,1,4.651,1.449V13.188A1.367,1.367,0,0,1,3.2,14.637Z" transform="translate(22.529 31.304)"/><path class="a" d="M14.68,1.468V3.207a1.454,1.454,0,0,1-1.453,1.449H1.453A1.454,1.454,0,0,1,0,3.207V1.468A1.454,1.454,0,0,1,1.453.019H13.227C14.1-.126,14.68.6,14.68,1.468Z" transform="translate(31.105 22.88)"/><path class="a" d="M14.826,1.468V3.207a1.454,1.454,0,0,1-1.453,1.449H1.453A1.454,1.454,0,0,1,0,3.207V1.468A1.454,1.454,0,0,1,1.453.019H13.227A1.411,1.411,0,0,1,14.826,1.468Z" transform="translate(4.36 22.88)"/><path class="a" d="M3.343,0l1.6,2.9,1.6,2.754H0L1.6,2.9Z" transform="translate(21.657)"/><path class="a" d="M3.343,5.8,1.6,2.9,0,0H6.541l-1.6,2.9Z" transform="translate(21.657 44.202)"/><path class="a" d="M5.814,3.333,2.907,4.927,0,6.522V0L2.907,1.594Z" transform="translate(44.186 21.884)"/><path class="a" d="M0,3.333,2.907,1.594,5.669,0V6.522L2.907,4.927Z" transform="translate(0 21.884)"/></g></svg>